<?xml version="1.0" encoding="UTF-8"?>
<svg id="icons" xmlns="http://www.w3.org/2000/svg" version="1.1" viewBox="0 0 288 288">
  <!-- Generator: Adobe Illustrator 29.8.3, SVG Export Plug-In . SVG Version: 2.1.1 Build 3)  -->
  <defs>
    <style>
      .st0 {
        fill: #c89211;
      }

      .st1 {
        fill: #2e4760;
      }
    </style>
  </defs>
  <rect class="st1" x="-.18" y=".13" width="288" height="287.75" rx="29.77" ry="29.77"/>
  <g>
    <path class="st0" d="M255.27,97.14c-1.15-2.2-2.46-4.34-3.89-6.42-9.61-13.92-24.44-23.22-38.72-24.23-9.72-.86-15.97,1.42-30.41,10.99l-69.64,46.23-.72.49-27.78,32.23.56.79,5.22,7.56.54.8.73-.5,67.68-44.93c13.39-8.89,18.9-11.26,25.65-11.06,10.45.25,23.48,8.33,31.01,19.24,1.09,1.57,2.08,3.22,2.96,4.92,3.7,7.05,5.56,14.86,5.4,21.79l-61.49,40.82-.72.48-27.77,32.24.56.78,5.22,7.56.54.8.73-.48,69.63-46.23c7.75-5.15,12.63-8.93,15.92-12.75l27.76-32.24c-.11.12-.25.25-.35.37,3.04-3.42,4.8-6.83,6.16-11.25,3.68-11.38,1.81-25.42-4.79-38.01Z"/>
    <path class="st0" d="M32.37,187.15c1.15,2.2,2.45,4.34,3.89,6.43,9.61,13.92,24.45,23.21,38.71,24.23,9.72.87,15.97-1.42,30.41-11l69.63-46.23.73-.49,27.77-32.24-.57-.78-5.22-7.57-.53-.8-.73.5-67.68,44.93c-13.39,8.89-18.9,11.26-25.65,11.06-10.44-.24-23.48-8.33-31-19.23-1.08-1.58-2.08-3.22-2.96-4.92-3.71-7.05-5.57-14.86-5.41-21.79l61.49-40.82.72-.48,27.77-32.24-.56-.79-5.21-7.56-.54-.79-.74.48-69.62,46.23c-7.75,5.14-12.63,8.93-15.92,12.75l-27.76,32.24c.11-.12.26-.25.36-.37-3.04,3.42-4.81,6.83-6.16,11.25-3.68,11.37-1.82,25.42,4.79,38Z"/>
  </g>
</svg>