<?xml version="1.0" encoding="UTF-8"?>
<svg id="Layer_1" xmlns="http://www.w3.org/2000/svg" version="1.1" viewBox="0 0 800 305.5">
  <!-- Generator: Adobe Illustrator 29.8.3, SVG Export Plug-In . SVG Version: 2.1.1 Build 3)  -->
  <defs>
    <style>
      .st0 {
        fill: #231f20;
      }

      .st1 {
        fill: #d59f0f;
      }
    </style>
  </defs>
  <g>
    <path class="st0" d="M20.86,174.96h11.21l20.7,18.92c4.14,3.8,7.79,7.86,8.15,8.13,0,0-.97-4.93-1.09-9.53l-.36-17.52h9.49v34.78h-10.1l-20.47-18.46c-3.89-3.59-8.89-9.06-8.89-9.06.25,1.4.61,4.59.74,9.66l.61,17.86h-10v-34.78Z"/>
    <path class="st0" d="M83.57,175.09h39.58l-1.34,4.47h-28.51v9.86h23.88v4.46h-23.75v11.19h30.82v4.67h-40.68v-34.65Z"/>
    <path class="st0" d="M131.68,174.96h10.47l8.16,16.73c2.68,5.46,3.66,9.66,4.26,11.72,0,0,2.19-6.2,4.63-11.39l8.16-17.06h10.96l8.53,17.79c2.19,4.73,4.26,10.19,4.26,10.46,0,0,1.83-5.79,4.26-11.06l8.15-17.19h9.99l-16.57,34.91h-12.17l-7.79-16.19c-2.55-5.26-4.26-11.26-4.26-11.26,0,0-2.19,6.13-4.26,10.86l-7.55,16.59h-12.18l-17.05-34.91Z"/>
    <path class="st0" d="M251.31,174.96h13.27l11.82,20.12c1.46,2.6,3.53,7.4,3.53,7.4,0,0,2.07-4.53,3.53-7.19l11.7-20.33h14.01l6.09,34.78h-9.63l-3.77-22.32c-.49-3.13-.61-7.33-.61-7.33,0,0-1.58,4.07-3.54,7.12l-13.76,22.53h-8.53l-13.4-22.58c-1.83-2.94-3.41-7.14-3.41-7.14,0,0-.36,4.14-.86,7.14l-3.65,22.58h-9.26l6.46-34.78Z"/>
    <path class="st0" d="M327.32,174.89h9.74v34.85h-9.74v-34.85Z"/>
    <path class="st0" d="M352.19,174.96h9.74v30.32h27.77l-1.34,4.47h-36.17v-34.78Z"/>
    <path class="st0" d="M399.7,174.96h9.74v30.32h27.77l-1.35,4.47h-36.17v-34.78Z"/>
    <path class="st0" d="M447.21,175.09h39.59l-1.33,4.47h-28.5v9.86h23.88v4.46h-23.76v11.19h30.82v4.67h-40.69v-34.65Z"/>
    <path class="st0" d="M498.98,174.96h11.21l20.7,18.92c4.14,3.8,7.8,7.86,8.16,8.13,0,0-.97-4.93-1.09-9.53l-.37-17.52h9.5v34.78h-10.11l-20.46-18.46c-3.9-3.59-8.88-9.06-8.88-9.06.24,1.4.6,4.59.73,9.66l.61,17.86h-9.99v-34.78Z"/>
    <path class="st0" d="M560.88,174.96h11.21l20.7,18.92c4.14,3.8,7.8,7.86,8.16,8.13,0,0-.97-4.93-1.1-9.53l-.37-17.52h9.49v34.78h-10.1l-20.46-18.46c-3.9-3.59-8.9-9.06-8.9-9.06.24,1.4.61,4.59.73,9.66l.61,17.86h-9.98v-34.78Z"/>
    <path class="st0" d="M625.57,174.89h9.74v34.85h-9.74v-34.85Z"/>
    <path class="st0" d="M650.91,174.96h9.74v20.86c0,2.74.37,4.87.86,5.79,1.58,2.61,6.82,4.13,13.76,4.13,5.72,0,9.74-.8,11.82-2.4,2.07-1.59,2.56-2.86,2.56-6.12v-22.25h9.74v22.12c0,5.73-1.09,7.73-5.72,10.06-4.5,2.26-10.23,3.2-18.63,3.2-12.91,0-19.12-2.8-21.92-5.93-1.7-1.93-2.19-3.2-2.19-7.33v-22.12Z"/>
    <path class="st0" d="M714.49,174.96h13.28l11.81,20.12c1.46,2.6,3.53,7.4,3.53,7.4,0,0,2.07-4.53,3.53-7.19l11.69-20.33h14.01l6.08,34.78h-9.62l-3.78-22.32c-.49-3.13-.62-7.33-.62-7.33,0,0-1.58,4.07-3.53,7.12l-13.76,22.53h-8.53l-13.39-22.58c-1.83-2.94-3.41-7.14-3.41-7.14,0,0-.37,4.14-.85,7.14l-3.66,22.58h-9.26l6.45-34.78Z"/>
  </g>
  <rect class="st1" x="18.96" y="223.34" width="761.42" height="3.03"/>
  <g>
    <path class="st1" d="M470.84,50.42c-.73-1.41-1.57-2.78-2.49-4.11-6.14-8.9-15.63-14.85-24.76-15.49-6.21-.55-10.21.91-19.45,7.03l-44.53,29.57-.46.32-17.76,20.61.36.5,3.34,4.84.34.51.47-.32,43.28-28.73c8.56-5.68,12.08-7.2,16.4-7.07,6.68.16,15.02,5.33,19.83,12.3.69,1.01,1.33,2.06,1.89,3.14,2.37,4.51,3.56,9.5,3.46,13.93l-39.32,26.1-.46.31-17.76,20.62.36.5,3.34,4.84.35.51.47-.31,44.53-29.56c4.96-3.29,8.08-5.71,10.18-8.15l17.75-20.62c-.07.08-.16.16-.23.24,1.94-2.19,3.07-4.37,3.94-7.19,2.36-7.28,1.16-16.26-3.06-24.31Z"/>
    <path class="st1" d="M328.3,107.98c.74,1.41,1.57,2.77,2.49,4.11,6.14,8.9,15.64,14.84,24.76,15.49,6.22.55,10.22-.91,19.45-7.03l44.53-29.56.47-.32,17.76-20.62-.36-.5-3.34-4.84-.34-.51-.47.32-43.28,28.73c-8.56,5.69-12.09,7.2-16.4,7.07-6.68-.16-15.01-5.33-19.82-12.3-.69-1.01-1.33-2.06-1.89-3.14-2.37-4.51-3.56-9.5-3.46-13.93l39.32-26.1.46-.31,17.76-20.62-.36-.5-3.33-4.84-.35-.5-.47.31-44.53,29.57c-4.96,3.29-8.08,5.71-10.18,8.15l-17.76,20.62c.07-.08.16-.16.23-.24-1.94,2.19-3.07,4.37-3.94,7.19-2.35,7.27-1.16,16.25,3.06,24.3Z"/>
  </g>
  <g>
    <path class="st0" d="M170.08,271.12l-1.01-5.74h-12.91l-3.53,5.74h-3.84l16.09-25.85h3.99l4.73,25.85h-3.53ZM166.32,248.6l-8.53,13.91h10.97l-2.44-13.91Z"/>
    <path class="st0" d="M188.99,266.97l2.21-2.33c1.78,2.48,4.88,4.07,8.53,4.07,4.03,0,5.7-2.64,5.7-4.81,0-5.08-12.83-4.15-12.83-11.51,0-3.99,3.8-7.52,9.15-7.52,3.99,0,7.52,1.55,9.34,4.07l-2.21,2.25c-1.7-2.37-4.65-3.49-7.48-3.49-3.02,0-5.35,2.05-5.35,4.26,0,4.65,12.83,3.99,12.83,11.43,0,4.11-3.33,8.18-9.42,8.18-4.65,0-8.68-1.98-10.46-4.61Z"/>
    <path class="st0" d="M213.75,268.17c0-.19.04-.7.12-1.08l2.71-12.17h-3.1l.58-2.52h3.1l1.12-5.12h2.91l-1.12,5.12h3.8l-.58,2.52h-3.8l-2.56,11.55c-.04.23-.08.5-.08.78,0,1.12.62,1.74,1.86,1.74.7,0,1.39-.27,1.78-.62l.35,2.33c-.7.54-1.71.89-2.83.89-2.6,0-4.26-1.09-4.26-3.41Z"/>
    <path class="st0" d="M225.68,263.29c0-6.2,4.61-11.36,10.54-11.36,4.92,0,8.06,3.41,8.06,8.18,0,.89-.19,2.05-.31,2.6h-15.27c0,.16-.04.62-.04.89,0,2.91,2.13,5.58,6.36,5.58,1.82,0,3.87-.62,5.39-1.82l.97,2.02c-1.67,1.32-4.15,2.21-6.55,2.21-5.7,0-9.15-3.29-9.15-8.29ZM241.57,260.58c.04-.16.08-.54.08-.74,0-3.1-1.98-5.5-5.7-5.5-3.45,0-6.36,2.91-6.94,6.24h12.56Z"/>
    <path class="st0" d="M248.66,263.29c0-6.2,4.61-11.36,10.54-11.36,4.92,0,8.06,3.41,8.06,8.18,0,.89-.19,2.05-.31,2.6h-15.27c0,.16-.04.62-.04.89,0,2.91,2.13,5.58,6.36,5.58,1.82,0,3.87-.62,5.39-1.82l.97,2.02c-1.67,1.32-4.15,2.21-6.55,2.21-5.7,0-9.15-3.29-9.15-8.29ZM264.55,260.58c.04-.16.08-.54.08-.74,0-3.1-1.98-5.5-5.7-5.5-3.45,0-6.36,2.91-6.94,6.24h12.56Z"/>
    <path class="st0" d="M270.9,271.12l5.7-25.85h2.91l-5.7,25.85h-2.91Z"/>
    <path class="st0" d="M292.06,271.12l5.7-25.85h8.64c5.73,0,10.74,4.57,10.74,11.05,0,7.02-5.08,14.81-16.28,14.81h-8.8ZM301.4,268.25c7.6,0,12.36-5.43,12.36-11.78,0-4.77-3.41-8.33-7.98-8.33h-5.43l-4.5,20.11h5.54Z"/>
    <path class="st0" d="M318.64,275.69c.42.19,1.12.31,1.82.31,1.05,0,1.82-.43,2.79-1.86l1.9-2.91-3.56-18.84h3.06l2.79,15.35,9.65-15.35h3.25l-14.42,22.52c-1.67,2.6-3.41,3.8-5.85,3.8-.85,0-1.78-.16-2.44-.43l1.01-2.6Z"/>
    <path class="st0" d="M353.01,271.12l2.71-12.29c.08-.35.23-.85.23-1.28,0-2.17-1.67-3.02-3.68-3.02-2.37,0-4.54,1.43-5.97,2.95l-3.02,13.64h-2.91l4.15-18.72h2.91l-.62,2.71c1.63-1.55,3.95-3.18,6.63-3.18,3.29,0,5.58,1.63,5.58,4.65,0,.35-.12,1.16-.23,1.55l-2.87,12.98h-2.91Z"/>
    <path class="st0" d="M379.94,255.34l.66-2.95h2.91l-4.15,18.72h-2.91l.58-2.67c-1.55,1.94-3.64,3.14-6.16,3.14-4.3,0-7.25-2.83-7.25-7.71,0-6.08,3.76-11.94,9.81-11.94,2.91,0,5.27,1.36,6.51,3.41ZM366.69,263.33c0,3.49,2.09,5.66,5.23,5.66,2.33,0,4.5-1.43,5.7-3.18l1.86-8.26c-.93-1.67-2.94-3.02-5.66-3.02-4.26,0-7.13,4.3-7.13,8.8Z"/>
    <path class="st0" d="M408.93,271.12l2.75-12.56c.04-.19.16-.66.16-1.12,0-1.86-1.47-2.91-3.18-2.91-1.82,0-3.8,1.39-5.12,2.95l-3.02,13.64h-2.91l2.79-12.56c.08-.5.16-.78.16-1.36-.04-1.47-1.12-2.67-3.26-2.67-1.78,0-3.72,1.43-5.04,2.95l-3.02,13.64h-2.91l4.15-18.72h2.91l-.62,2.71c1.05-1.2,3.22-3.18,5.89-3.18,3.33,0,4.81,2.37,4.81,3.49v.08c1.51-1.86,3.8-3.57,6.51-3.57s4.92,1.63,4.92,4.65c0,.43-.11,1.09-.19,1.55l-2.87,12.98h-2.91Z"/>
    <path class="st0" d="M418.81,271.12l4.15-18.72h2.91l-4.15,18.72h-2.91ZM423.42,248.02c0-1.36,1.2-2.21,2.21-2.21s1.79.81,1.79,1.7c0,1.39-1.2,2.21-2.21,2.21s-1.78-.74-1.78-1.71Z"/>
    <path class="st0" d="M429.42,263.21c0-6.16,4.61-11.28,10.54-11.28,3.45,0,5.74,1.36,7.02,3.49l-2.21,1.67c-.97-1.71-2.79-2.56-4.73-2.56-4.69,0-7.6,4.15-7.6,8.64,0,3.84,2.56,5.81,5.85,5.81,1.94,0,3.6-.93,4.73-2.21l1.67,1.94c-1.59,1.63-3.68,2.87-6.67,2.87-5.04,0-8.61-3.14-8.61-8.37Z"/>
    <path class="st0" d="M448.33,268.29l1.86-2.02c1.01,1.47,3.41,2.95,6.2,2.95s4.3-1.59,4.3-3.29c0-3.56-9.85-2.98-9.85-8.22,0-3.1,2.52-5.77,7.1-5.77,3.17,0,5.89,1.36,7.13,3.06l-1.67,1.9c-.86-1.36-3.22-2.6-5.62-2.6-2.52,0-4.03,1.28-4.03,2.87,0,3.37,9.85,2.79,9.85,8.26,0,3.25-2.68,6.16-7.36,6.16-3.37,0-6.2-1.16-7.91-3.29Z"/>
    <path class="st0" d="M480.88,260.27c0-9.34,7.05-15.42,14.53-15.42,5.12,0,8.76,2.4,10.54,6.08l-3.06,1.2c-1.55-3.06-4.42-4.42-7.67-4.42-5.54,0-10.93,4.92-10.93,12.4,0,5.08,3.37,8.61,8.72,8.61,2.4,0,4.89-1.01,6.94-2.95l2.37,1.78c-2.71,2.91-6.32,4.03-9.49,4.03-6.86,0-11.94-4.46-11.94-11.32Z"/>
    <path class="st0" d="M507.46,263.29c0-5.89,4.38-11.36,10.43-11.36,5.31,0,8.57,3.37,8.57,8.33,0,5.89-4.42,11.32-10.43,11.32-5.35,0-8.56-3.33-8.56-8.29ZM523.39,260.34c0-3.53-2.05-5.81-5.58-5.81-4.26,0-7.29,4.22-7.29,8.64,0,3.53,2.05,5.81,5.58,5.81,4.26,0,7.28-4.22,7.28-8.64Z"/>
    <path class="st0" d="M552.65,271.12l2.75-12.56c.04-.19.16-.66.16-1.12,0-1.86-1.47-2.91-3.18-2.91-1.82,0-3.8,1.39-5.12,2.95l-3.02,13.64h-2.91l2.79-12.56c.08-.5.16-.78.16-1.36-.04-1.47-1.12-2.67-3.26-2.67-1.78,0-3.72,1.43-5.04,2.95l-3.02,13.64h-2.91l4.15-18.72h2.91l-.62,2.71c1.05-1.2,3.22-3.18,5.89-3.18,3.33,0,4.81,2.37,4.81,3.49v.08c1.51-1.86,3.8-3.57,6.51-3.57s4.92,1.63,4.92,4.65c0,.43-.11,1.09-.19,1.55l-2.87,12.98h-2.91Z"/>
    <path class="st0" d="M566.09,268.17l-2.25,10.08h-2.91l5.74-25.85h2.91l-.62,2.67c1.59-1.94,3.68-3.14,6.2-3.14,4.26,0,7.25,2.83,7.25,7.71,0,6.08-3.8,11.94-9.8,11.94-2.95,0-5.27-1.36-6.51-3.41ZM579.35,260.19c0-3.49-2.13-5.66-5.23-5.66-2.37,0-4.5,1.47-5.74,3.22l-1.82,8.22c.93,1.7,2.94,3.02,5.66,3.02,4.26,0,7.13-4.3,7.13-8.8Z"/>
    <path class="st0" d="M602.91,255.34l.66-2.95h2.91l-4.15,18.72h-2.91l.58-2.67c-1.55,1.94-3.64,3.14-6.16,3.14-4.3,0-7.25-2.83-7.25-7.71,0-6.08,3.76-11.94,9.8-11.94,2.91,0,5.27,1.36,6.51,3.41ZM589.65,263.33c0,3.49,2.09,5.66,5.23,5.66,2.32,0,4.5-1.43,5.7-3.18l1.86-8.26c-.93-1.67-2.94-3.02-5.66-3.02-4.26,0-7.13,4.3-7.13,8.8Z"/>
    <path class="st0" d="M621.93,271.12l2.71-12.29c.08-.35.23-.85.23-1.28,0-2.17-1.67-3.02-3.68-3.02-2.37,0-4.54,1.43-5.97,2.95l-3.02,13.64h-2.91l4.15-18.72h2.91l-.62,2.71c1.63-1.55,3.95-3.18,6.63-3.18,3.3,0,5.58,1.63,5.58,4.65,0,.35-.12,1.16-.23,1.55l-2.87,12.98h-2.91Z"/>
    <path class="st0" d="M630.22,275.69c.43.19,1.12.31,1.82.31,1.05,0,1.82-.43,2.79-1.86l1.9-2.91-3.57-18.84h3.06l2.79,15.35,9.65-15.35h3.26l-14.42,22.52c-1.67,2.6-3.41,3.8-5.85,3.8-.85,0-1.78-.16-2.44-.43l1.01-2.6Z"/>
  </g>
</svg>